<svg xmlns="http://www.w3.org/2000/svg" version="1.1" xmlns:xlink="http://www.w3.org/1999/xlink" xmlns:svgjs="http://svgjs.dev/svgjs" viewBox="0 0 800 800" opacity="0.1"><defs><linearGradient x1="50%" y1="0%" x2="50%" y2="100%" id="wwwhirl-grad"><stop stop-color="#293a4e38" stop-opacity="1" offset="45%"></stop><stop stop-color="#ff000016" stop-opacity="1" offset="100%"></stop></linearGradient></defs><g stroke-width="2" stroke="url(#wwwhirl-grad)" fill="none" stroke-linecap="round"><path d="M-608 408.82011543273927C-560 397.78011543273925 -416 343.0601154327393 -320 342.58011543273926C-224 342.10011543273924 -128 406.90011543273926 -32 405.9401154327393C63.999999999999886 404.98011543273924 160 330.10011543273924 256 336.82011543273927C352 343.54011543273924 448 445.78011543273925 544 446.26011543273927C640.0000000000002 446.7401154327393 735.9999999999998 336.82011543273927 832 339.70011543273927C928 342.58011543273926 1024 460.66011543273925 1120 463.54011543273924C1216 466.4201154327393 1360 374.7401154327393 1408 356.98011543273924 " transform="rotate(144, 400, 400)"></path><path d="M-587 408.6363621139526C-540 397.82636211395265 -399 344.2463621139526 -305 343.77636211395264C-211 343.3063621139526 -117 406.7563621139526 -23 405.81636211395266C70.99999999999989 404.8763621139526 165 331.5563621139526 259 338.13636211395266C353 344.71636211395264 447 444.8263621139526 541 445.2963621139526C635.0000000000002 445.76636211395265 728.9999999999998 338.13636211395266 823 340.95636211395265C917 343.77636211395264 1011 459.39636211395265 1105 462.21636211395264C1199 465.03636211395263 1340 375.26636211395265 1387 357.8763621139526 " transform="rotate(141, 400, 400)"></path><path d="M-566 408.45259735107425C-520 397.8725973510742 -382 345.4325973510742 -290 344.9725973510742C-197.99999999999994 344.5125973510742 -106 406.6125973510742 -14 405.69259735107426C77.99999999999989 404.7725973510742 170.0000000000001 333.0125973510742 262 339.45259735107425C354 345.89259735107424 446 443.8725973510742 538 444.33259735107424C630.0000000000002 444.7925973510742 721.9999999999998 339.45259735107425 814 342.21259735107424C906.0000000000002 344.9725973510742 998 458.1325973510742 1090 460.89259735107424C1182 463.65259735107423 1320 375.7925973510742 1366 358.77259735107424 " transform="rotate(138, 400, 400)"></path><path d="M-545 408.2688631057739C-500 397.91886310577394 -365 346.6188631057739 -275 346.16886310577394C-184.99999999999994 345.71886310577395 -95 406.46886310577395 -5 405.5688631057739C84.99999999999989 404.6688631057739 175.0000000000001 334.46886310577395 265 340.7688631057739C355 347.0688631057739 445 442.9188631057739 535 443.3688631057739C625.0000000000002 443.81886310577397 714.9999999999998 340.7688631057739 805 343.46886310577395C895.0000000000002 346.16886310577394 985 456.8688631057739 1075 459.5688631057739C1165 462.2688631057739 1300 376.3188631057739 1345 359.66886310577394 " transform="rotate(135, 400, 400)"></path><path d="M-524 408.0851021575928C-480 397.96510215759275 -348 347.8051021575928 -260 347.3651021575928C-171.99999999999994 346.9251021575928 -84 406.32510215759277 4 405.44510215759277C91.99999999999989 404.5651021575928 180.0000000000001 335.9251021575928 268 342.08510215759276C356 348.2451021575928 444 441.96510215759275 532 442.40510215759275C620.0000000000002 442.8451021575928 707.9999999999998 342.08510215759276 796 344.7251021575928C884.0000000000002 347.3651021575928 971.9999999999998 455.6051021575928 1060 458.2451021575928C1148 460.88510215759277 1280 376.8451021575928 1324 360.5651021575928 " transform="rotate(132, 400, 400)"></path><path d="M-503 407.9013412094116C-460 398.0113412094116 -331 348.99134120941164 -245 348.56134120941164C-158.99999999999994 348.13134120941163 -73 406.18134120941164 13 405.3213412094116C98.99999999999989 404.4613412094116 185.0000000000001 337.38134120941163 271 343.4013412094116C357 349.42134120941165 443 441.0113412094116 529 441.44134120941163C615.0000000000002 441.87134120941164 700.9999999999998 343.4013412094116 787 345.9813412094116C873.0000000000002 348.56134120941164 958.9999999999998 454.3413412094116 1045 456.9213412094116C1131 459.50134120941163 1260 377.37134120941164 1303 361.4613412094116 " transform="rotate(129, 400, 400)"></path><path d="M-482 407.717587890625C-440 398.057587890625 -314 350.177587890625 -230 349.757587890625C-145.99999999999994 349.337587890625 -62 406.037587890625 22 405.197587890625C105.99999999999989 404.357587890625 190.0000000000001 338.837587890625 274 344.717587890625C358 350.597587890625 442 440.057587890625 526 440.477587890625C610.0000000000002 440.897587890625 693.9999999999998 344.717587890625 778 347.237587890625C862.0000000000002 349.757587890625 945.9999999999998 453.077587890625 1030 455.597587890625C1114 458.117587890625 1240 377.897587890625 1282 362.357587890625 " transform="rotate(126, 400, 400)"></path><path d="M-461 407.5338422012329C-420 398.1038422012329 -297 351.3638422012329 -215 350.95384220123293C-132.99999999999994 350.5438422012329 -50.99999999999994 405.8938422012329 31 405.07384220123294C112.99999999999989 404.2538422012329 195.0000000000001 340.2938422012329 277 346.0338422012329C359 351.7738422012329 441 439.1038422012329 523 439.51384220123293C605.0000000000002 439.9238422012329 686.9999999999998 346.0338422012329 769 348.4938422012329C851.0000000000002 350.95384220123293 932.9999999999998 451.8138422012329 1015 454.2738422012329C1097 456.7338422012329 1220 378.4238422012329 1261 363.2538422012329 " transform="rotate(123, 400, 400)"></path><path d="M-440 407.35008125305177C-400 398.1500812530517 -280 352.55008125305176 -200 352.1500812530518C-119.99999999999994 351.75008125305175 -39.99999999999994 405.75008125305175 40 404.95008125305174C119.99999999999989 404.1500812530517 200.0000000000001 341.75008125305175 280 347.35008125305177C360 352.95008125305174 440 438.1500812530518 520 438.55008125305176C600.0000000000002 438.95008125305174 679.9999999999998 347.35008125305177 760 349.75008125305175C840.0000000000002 352.1500812530518 919.9999999999998 450.55008125305176 1000 452.95008125305174C1080 455.35008125305177 1200 378.95008125305174 1240 364.1500812530518 " transform="rotate(120, 400, 400)"></path><path d="M-419 407.1663431930542C-380 398.1963431930542 -263 353.7363431930542 -185 353.3463431930542C-106.99999999999994 352.9563431930542 -28.999999999999943 405.6063431930542 49 404.8263431930542C126.99999999999989 404.0463431930542 205.0000000000001 343.2063431930542 283 348.6663431930542C361 354.1263431930542 439 437.1963431930542 517 437.5863431930542C595 437.9763431930542 672.9999999999998 348.6663431930542 751 351.0063431930542C829.0000000000002 353.3463431930542 906.9999999999998 449.2863431930542 985 451.6263431930542C1063.0000000000002 453.96634319305423 1180 379.4763431930542 1219 365.0463431930542 " transform="rotate(117, 400, 400)"></path><path d="M-398 406.9825822448731C-360 398.24258224487306 -246.00000000000003 354.92258224487307 -170 354.5425822448731C-93.99999999999994 354.162582244873 -17.999999999999943 405.46258224487303 58 404.70258224487304C133.9999999999999 403.94258224487305 210.0000000000001 344.662582244873 286 349.9825822448731C362 355.30258224487307 438 436.242582244873 514 436.62258224487306C590 437.00258224487305 665.9999999999998 349.9825822448731 742 352.26258224487304C818.0000000000002 354.5425822448731 893.9999999999998 448.02258224487304 970 450.30258224487307C1046.0000000000002 452.58258224487304 1160 380.00258224487305 1198 365.94258224487305 " transform="rotate(114, 400, 400)"></path><path d="M-377 406.7988289260864C-340 398.2888289260864 -229.00000000000003 356.1088289260864 -155 355.7388289260864C-80.99999999999994 355.36882892608645 -6.999999999999943 405.31882892608644 67 404.57882892608643C140.9999999999999 403.8388289260864 215.0000000000001 346.11882892608645 289 351.2988289260864C362.9999999999999 356.4788289260864 437 435.2888289260864 511 435.6588289260864C585 436.0288289260864 658.9999999999998 351.2988289260864 733 353.5188289260864C807.0000000000002 355.7388289260864 880.9999999999998 446.75882892608644 955 448.9788289260864C1029.0000000000002 451.19882892608643 1140 380.5288289260864 1177 366.8388289260864 " transform="rotate(111, 400, 400)"></path><path d="M-356 406.6150756072998C-320 398.3350756072998 -212.00000000000003 357.2950756072998 -140 356.9350756072998C-68 356.5750756072998 4.000000000000057 405.1750756072998 76 404.4550756072998C148 403.7350756072998 220 347.5750756072998 292 352.6150756072998C364 357.6550756072998 436 434.3350756072998 508 434.6950756072998C580 435.05507560729984 652 352.6150756072998 724 354.7750756072998C796 356.9350756072998 868 445.4950756072998 940 447.6550756072998C1012 449.81507560729983 1120 381.0550756072998 1156 367.7350756072998 " transform="rotate(108, 400, 400)"></path><path d="M-335 406.43133373260497C-300 398.38133373260496 -195.00000000000003 358.481333732605 -125 358.13133373260496C-55 357.781333732605 15.000000000000057 405.031333732605 85 404.331333732605C155 403.63133373260496 225 349.031333732605 295 353.93133373260497C365 358.831333732605 435 433.38133373260496 505 433.731333732605C575 434.081333732605 645 353.93133373260497 715 356.031333732605C785 358.13133373260496 855 444.231333732605 925 446.331333732605C995 448.43133373260497 1100 381.581333732605 1135 368.63133373260496 " transform="rotate(105, 400, 400)"></path><path d="M-314 406.2475765991211C-280 398.4275765991211 -178.00000000000003 359.6675765991211 -110 359.3275765991211C-42 358.9875765991211 26.000000000000057 404.8875765991211 94 404.2075765991211C162 403.5275765991211 230 350.4875765991211 298 355.2475765991211C366 360.0075765991211 434 432.4275765991211 502 432.76757659912107C570 433.1075765991211 638 355.2475765991211 706 357.2875765991211C774 359.3275765991211 842 442.9675765991211 910 445.0075765991211C978 447.0475765991211 1080 382.1075765991211 1114 369.5275765991211 " transform="rotate(102, 400, 400)"></path><path d="M-293 406.0638232803345C-260 398.4738232803345 -161.00000000000003 360.8538232803345 -95 360.52382328033445C-29 360.19382328033447 37.00000000000006 404.7438232803345 103 404.08382328033446C169 403.4238232803345 235 351.94382328033447 301 356.5638232803345C367 361.1838232803345 433 431.4738232803345 499 431.8038232803345C565 432.13382328033447 631 356.5638232803345 697 358.5438232803345C763 360.52382328033445 829 441.70382328033446 895 443.6838232803345C961 445.66382328033444 1060 382.63382328033447 1093 370.4238232803345 " transform="rotate(99, 400, 400)"></path><path d="M-272 405.8800775909424C-240 398.5200775909424 -144 362.04007759094236 -80 361.72007759094237C-16 361.4000775909424 48.00000000000006 404.60007759094236 112 403.9600775909424C176 403.3200775909424 240 353.4000775909424 304 357.8800775909424C368 362.3600775909424 432 430.5200775909424 496 430.84007759094237C560 431.16007759094236 624 357.8800775909424 688 359.8000775909424C752 361.72007759094237 816 440.4400775909424 880 442.3600775909424C944 444.28007759094237 1040 383.16007759094236 1072 371.3200775909424 " transform="rotate(96, 400, 400)"></path><path d="M-251 405.696312828064C-220 398.566312828064 -127 363.22631282806395 -65 362.91631282806395C-3 362.60631282806395 59.00000000000006 404.456312828064 121 403.83631282806397C183 403.21631282806396 245 354.85631282806395 307 359.196312828064C369 363.53631282806396 431 429.56631282806393 493 429.876312828064C555 430.186312828064 617 359.196312828064 679 361.05631282806394C741 362.91631282806395 803 439.17631282806394 865 441.03631282806396C927 442.89631282806397 1020 383.686312828064 1051 372.21631282806396 " transform="rotate(93, 400, 400)"></path><path d="M-230 405.51256332397463C-200 398.6125633239746 -110 364.4125633239746 -50 364.1125633239746C10 363.8125633239746 70.00000000000006 404.3125633239746 130 403.7125633239746C190 403.1125633239746 250 356.3125633239746 310 360.51256332397463C370 364.7125633239746 430 428.6125633239746 490 428.9125633239746C550 429.2125633239746 610 360.51256332397463 670 362.3125633239746C730 364.1125633239746 790 437.9125633239746 850 439.7125633239746C910 441.51256332397463 1000 384.2125633239746 1030 373.1125633239746 " transform="rotate(90, 400, 400)"></path><path d="M-209 405.328810005188C-180 398.658810005188 -93 365.598810005188 -35 365.308810005188C23 365.018810005188 81.00000000000006 404.168810005188 139 403.588810005188C197 403.00881000518797 255 357.768810005188 313 361.82881000518796C371 365.88881000518796 429 427.658810005188 487 427.94881000518797C545 428.238810005188 603 361.82881000518796 661 363.56881000518797C719 365.308810005188 777 436.648810005188 835 438.388810005188C893 440.12881000518803 980 384.738810005188 1009 374.00881000518797 " transform="rotate(87, 400, 400)"></path><path d="M-188 405.1450643157959C-160 398.7050643157959 -76 366.7850643157959 -20 366.5050643157959C36 366.2250643157959 92.00000000000006 404.0250643157959 148 403.46506431579587C204 402.9050643157959 260 359.2250643157959 316 363.1450643157959C372 367.0650643157959 428 426.7050643157959 484 426.9850643157959C540.0000000000001 427.26506431579594 596 363.1450643157959 652 364.8250643157959C708 366.5050643157959 764 435.3850643157959 820 437.0650643157959C876 438.7450643157959 960 385.2650643157959 988 374.9050643157959 " transform="rotate(84, 400, 400)"></path><path d="M-167 404.96130908966063C-140 398.75130908966065 -59 367.9713090896606 -5 367.70130908966064C49 367.43130908966066 103.00000000000006 403.88130908966065 157 403.3413090896606C211 402.80130908966066 265 360.68130908966066 319 364.46130908966063C373 368.24130908966066 427 425.75130908966065 481 426.02130908966063C535.0000000000001 426.2913090896607 589 364.46130908966063 643 366.08130908966064C697 367.70130908966064 751 434.12130908966066 805 435.7413090896606C859 437.3613090896606 940 385.7913090896607 967 375.80130908966066 " transform="rotate(81, 400, 400)"></path><path d="M-146 404.7775672149658C-120 398.7975672149658 -42 369.1575672149658 10 368.8975672149658C62 368.6375672149658 114.00000000000006 403.7375672149658 166 403.2175672149658C217.99999999999994 402.69756721496583 270 362.1375672149658 322 365.7775672149658C374 369.4175672149658 426 424.7975672149658 478 425.05756721496584C530.0000000000001 425.31756721496583 581.9999999999999 365.7775672149658 634 367.3375672149658C686 368.8975672149658 738 432.8575672149658 790 434.41756721496586C842 435.9775672149658 920 386.31756721496583 946 376.69756721496583 " transform="rotate(78, 400, 400)"></path><path d="M-125 404.59379863739014C-100 398.84379863739014 -25 370.34379863739014 25 370.09379863739014C75 369.84379863739014 125 403.59379863739014 175 403.09379863739014C224.99999999999994 402.59379863739014 275 363.59379863739014 325 367.09379863739014C375 370.59379863739014 425 423.84379863739014 475 424.09379863739014C525.0000000000001 424.34379863739014 574.9999999999999 367.09379863739014 625 368.59379863739014C675 370.09379863739014 725 431.59379863739014 775 433.09379863739014C825 434.59379863739014 900 386.84379863739014 925 377.59379863739014 " transform="rotate(75, 400, 400)"></path><path d="M-104 404.4100491333008C-80 398.89004913330075 -8 371.5300491333008 40 371.2900491333008C88 371.0500491333008 136 403.4500491333008 184 402.9700491333008C231.99999999999994 402.4900491333008 280 365.0500491333008 328 368.4100491333008C376 371.7700491333008 424 422.89004913330075 472 423.13004913330076C520.0000000000001 423.37004913330077 567.9999999999999 368.4100491333008 616 369.8500491333008C664 371.2900491333008 712 430.3300491333008 760 431.7700491333008C808 433.2100491333008 880 387.37004913330077 904 378.4900491333008 " transform="rotate(72, 400, 400)"></path><path d="M-83 404.22630725860597C-60 398.93630725860595 9 372.716307258606 55 372.48630725860596C101 372.25630725860594 147 403.30630725860595 193 402.846307258606C238.99999999999994 402.38630725860594 285.00000000000006 366.50630725860594 331 369.72630725860597C377 372.94630725860594 423 421.93630725860595 469 422.16630725860597C515.0000000000001 422.396307258606 560.9999999999999 369.72630725860597 607 371.10630725860597C653.0000000000001 372.48630725860596 699 429.06630725860595 745 430.44630725860594C791 431.82630725860594 860 387.896307258606 883 379.38630725860594 " transform="rotate(69, 400, 400)"></path><path d="M-62 404.042555847168C-40 398.982555847168 26 373.90255584716795 70 373.682555847168C114 373.46255584716795 158 403.162555847168 202 402.722555847168C245.99999999999994 402.28255584716794 290.00000000000006 367.96255584716795 334 371.042555847168C378 374.122555847168 422 420.982555847168 466 421.20255584716796C510.0000000000001 421.422555847168 553.9999999999999 371.042555847168 598 372.362555847168C642.0000000000001 373.682555847168 685.9999999999999 427.802555847168 730 429.122555847168C774 430.44255584716797 840 388.422555847168 862 380.28255584716794 " transform="rotate(66, 400, 400)"></path><path d="M-41 403.85880062103274C-20 399.0288006210327 43 375.0888006210327 85 374.8788006210327C127 374.6688006210327 169 403.0188006210327 211 402.5988006210327C252.99999999999994 402.17880062103274 295.00000000000006 369.4188006210327 337 372.35880062103274C379 375.29880062103274 421 420.0288006210327 463 420.23880062103274C505.0000000000001 420.4488006210327 546.9999999999999 372.35880062103274 589 373.61880062103273C631.0000000000001 374.8788006210327 672.9999999999999 426.5388006210327 715 427.79880062103274C757 429.05880062103273 820 388.9488006210327 841 381.17880062103274 " transform="rotate(63, 400, 400)"></path><path d="M-20 403.67504730224607C0 399.0750473022461 60 376.2750473022461 100 376.0750473022461C140 375.8750473022461 180 402.8750473022461 220 402.4750473022461C259.99999999999994 402.0750473022461 300.00000000000006 370.8750473022461 340 373.67504730224607C380 376.4750473022461 420 419.0750473022461 460 419.2750473022461C500.0000000000001 419.4750473022461 539.9999999999999 373.67504730224607 580 374.8750473022461C620.0000000000001 376.0750473022461 659.9999999999999 425.2750473022461 700 426.4750473022461C740 427.67504730224607 800 389.4750473022461 820 382.0750473022461 " transform="rotate(60, 400, 400)"></path><path d="M1 403.4912977981567C20 399.1212977981567 77 377.46129779815675 115 377.27129779815675C153.00000000000003 377.08129779815675 191 402.73129779815673 229 402.35129779815674C266.99999999999994 401.97129779815674 305.00000000000006 372.33129779815675 343 374.9912977981567C381 377.65129779815675 419 418.1212977981567 457 418.3112977981567C495 418.50129779815677 532.9999999999999 374.9912977981567 571 376.13129779815677C609.0000000000001 377.27129779815675 646.9999999999999 424.01129779815676 685 425.15129779815675C723.0000000000001 426.29129779815673 780 390.0012977981567 799 382.97129779815674 " transform="rotate(57, 400, 400)"></path><path d="M22 403.3075387573242C40 399.1675387573242 94 378.64753875732424 130 378.46753875732423C166 378.2875387573242 202 402.58753875732424 238 402.2275387573242C274 401.8675387573242 310 373.7875387573242 346 376.3075387573242C382 378.8275387573242 418 417.1675387573242 454 417.34753875732423C490 417.52753875732424 526 376.3075387573242 562 377.3875387573242C598 378.46753875732423 634 422.7475387573242 670 423.82753875732425C706 424.90753875732423 760 390.52753875732424 778 383.8675387573242 " transform="rotate(54, 400, 400)"></path><path d="M43 403.12379497528076C60 399.21379497528073 111 379.83379497528074 145 379.6637949752808C179 379.49379497528076 213 402.44379497528075 247 402.1037949752808C281 401.76379497528075 315 375.24379497528076 349 377.62379497528076C383 380.00379497528075 417 416.21379497528073 451 416.38379497528075C485 416.55379497528077 519 377.62379497528076 553 378.64379497528074C587 379.6637949752808 621 421.4837949752808 655 422.50379497528075C689 423.5237949752808 740 391.05379497528077 757 384.76379497528075 " transform="rotate(51, 400, 400)"></path><path d="M64 402.94004165649415C80 399.26004165649414 128 381.02004165649413 160 380.86004165649416C192 380.70004165649414 224 402.30004165649416 256 401.98004165649417C288 401.6600416564941 320 376.70004165649414 352 378.94004165649415C384 381.18004165649415 416 415.26004165649414 448 415.42004165649416C480 415.58004165649413 512 378.94004165649415 544 379.9000416564941C576 380.86004165649416 608 420.2200416564941 640 421.18004165649415C672 422.14004165649413 720 391.58004165649413 736 385.6600416564941 " transform="rotate(48, 400, 400)"></path><path d="M85 402.7562816619873C100 399.3062816619873 145 382.2062816619873 175 382.0562816619873C205 381.9062816619873 235.00000000000003 402.1562816619873 265 401.8562816619873C295 401.5562816619873 325 378.1562816619873 355 380.2562816619873C385 382.3562816619873 415 414.3062816619873 445 414.4562816619873C475 414.6062816619873 505 380.2562816619873 535 381.1562816619873C565 382.0562816619873 595 418.9562816619873 625 419.8562816619873C655 420.7562816619873 700 392.1062816619873 715 386.5562816619873 " transform="rotate(45, 400, 400)"></path><path d="M106 402.57252643585207C120 399.35252643585204 162 383.39252643585206 190 383.2525264358521C218 383.11252643585203 246.00000000000003 402.01252643585207 274 401.73252643585204C302 401.45252643585206 330 379.61252643585203 358 381.57252643585207C386 383.53252643585205 414 413.35252643585204 442 413.492526435852C470.00000000000006 413.63252643585207 498 381.57252643585207 526 382.41252643585204C554 383.2525264358521 582 417.6925264358521 610 418.53252643585205C638 419.372526435852 680 392.63252643585207 694 387.45252643585206 " transform="rotate(42, 400, 400)"></path><path d="M127 402.38878360748294C140 399.3987836074829 179 384.57878360748293 205 384.44878360748294C231 384.3187836074829 257 401.8687836074829 283 401.6087836074829C309 401.3487836074829 335 381.0687836074829 361 382.88878360748294C387 384.7087836074829 413 412.3987836074829 439 412.5287836074829C465.00000000000006 412.6587836074829 490.99999999999994 382.88878360748294 517 383.6687836074829C543 384.44878360748294 569 416.4287836074829 595 417.2087836074829C621 417.9887836074829 660 393.1587836074829 673 388.3487836074829 " transform="rotate(39, 400, 400)"></path><path d="M148 402.20502361297605C160 399.44502361297606 196 385.76502361297605 220 385.64502361297605C244 385.5250236129761 268 401.7250236129761 292 401.4850236129761C316 401.24502361297607 340 382.5250236129761 364 384.20502361297605C388 385.88502361297606 412 411.44502361297606 436 411.56502361297606C460.00000000000006 411.68502361297607 483.99999999999994 384.20502361297605 508 384.9250236129761C532 385.64502361297605 556 415.1650236129761 580 415.88502361297606C604 416.6050236129761 640 393.68502361297607 652 389.24502361297607 " transform="rotate(36, 400, 400)"></path><path d="M169 402.0212741088867C180 399.4912741088867 213 386.9512741088867 235 386.8412741088867C257 386.73127410888674 279 401.5812741088867 301 401.36127410888673C323 401.1412741088867 345 383.98127410888674 367 385.5212741088867C389 387.0612741088867 411 410.4912741088867 433 410.60127410888674C455.00000000000006 410.71127410888676 476.99999999999994 385.5212741088867 499 386.1812741088867C521 386.8412741088867 543 413.9012741088867 565 414.5612741088867C587 415.22127410888675 620 394.2112741088867 631 390.1412741088867 " transform="rotate(33, 400, 400)"></path><path d="M190 401.83751888275145C200 399.53751888275144 230 388.13751888275146 250 388.03751888275144C270 387.9375188827515 290 401.4375188827515 310 401.2375188827515C330 401.03751888275144 350 385.4375188827515 370 386.83751888275145C390 388.2375188827515 410 409.53751888275144 430 409.63751888275146C450.00000000000006 409.7375188827515 469.99999999999994 386.83751888275145 490 387.4375188827515C510.00000000000006 388.03751888275144 530 412.63751888275146 550 413.2375188827515C570 413.83751888275145 600 394.7375188827515 610 391.03751888275144 " transform="rotate(30, 400, 400)"></path><path d="M211 401.6537693786621C220 399.5837693786621 247 389.3237693786621 265 389.2337693786621C283 389.1437693786621 301 401.2937693786621 319 401.1137693786621C337 400.93376937866213 355 386.8937693786621 373 388.1537693786621C391 389.4137693786621 409 408.5837693786621 427 408.6737693786621C445 408.7637693786621 463 388.1537693786621 481 388.6937693786621C499 389.2337693786621 517 411.37376937866213 535 411.9137693786621C553 412.4537693786621 580 395.2637693786621 589 391.93376937866213 " transform="rotate(27, 400, 400)"></path><path d="M232 401.47001892089844C240 399.63001892089846 264 390.51001892089846 280 390.4300189208984C296 390.35001892089844 312 401.15001892089845 328 400.9900189208984C344 400.83001892089845 360 388.35001892089844 376 389.47001892089844C392 390.59001892089844 408 407.6300189208984 424 407.71001892089845C440 407.79001892089843 456 389.47001892089844 472 389.95001892089846C488 390.4300189208984 504 410.1100189208984 520 410.59001892089844C536 411.07001892089846 560 395.79001892089843 568 392.83001892089845 " transform="rotate(24, 400, 400)"></path><path d="M253 401.2862656021118C260 399.6762656021118 281 391.6962656021118 295 391.6262656021118C309 391.5562656021118 323 401.0062656021118 337 400.8662656021118C351 400.7262656021118 365 389.8062656021118 379 390.7862656021118C393 391.76626560211184 407 406.6762656021118 421 406.7462656021118C435 406.8162656021118 449 390.7862656021118 463 391.20626560211184C477 391.6262656021118 491 408.8462656021118 505 409.26626560211184C519 409.6862656021118 540 396.3162656021118 547 393.7262656021118 " transform="rotate(21, 400, 400)"></path><path d="M274 401.1025132369995C280 399.72251323699953 298 392.8825132369995 310 392.8225132369995C322 392.7625132369995 334 400.8625132369995 346 400.7425132369995C358 400.6225132369995 370 391.2625132369995 382 392.1025132369995C394 392.9425132369995 406 405.72251323699953 418 405.78251323699953C430 405.84251323699954 442 392.1025132369995 454 392.4625132369995C466 392.8225132369995 478 407.5825132369995 490 407.9425132369995C502 408.3025132369995 520 396.84251323699954 526 394.6225132369995 " transform="rotate(18, 400, 400)"></path><path d="M295 400.91876039505007C300 399.76876039505004 315 394.06876039505005 325 394.01876039505004C335 393.96876039505 345 400.71876039505 355 400.61876039505006C365 400.51876039505004 375 392.71876039505 385 393.41876039505007C395 394.11876039505006 405 404.76876039505004 415 404.81876039505005C425 404.86876039505006 435 393.41876039505007 445 393.71876039505C455 394.01876039505004 465 406.31876039505005 475 406.61876039505006C485 406.91876039505007 500 397.36876039505006 505 395.51876039505004 " transform="rotate(15, 400, 400)"></path><path d="M316 400.7350094604492C320 399.81500946044923 332 395.25500946044923 340 395.2150094604492C348 395.17500946044925 356 400.5750094604492 364 400.49500946044924C372 400.4150094604492 380 394.17500946044925 388 394.7350094604492C396 395.2950094604492 404 403.81500946044923 412 403.8550094604492C420 403.8950094604492 428 394.7350094604492 436 394.9750094604492C444 395.2150094604492 452 405.05500946044924 460 405.2950094604492C468 405.5350094604492 480 397.8950094604492 484 396.4150094604492 " transform="rotate(12, 400, 400)"></path><path d="M337 400.5512561416626C340 399.8612561416626 349 396.4412561416626 355 396.4112561416626C361 396.3812561416626 367 400.4312561416626 373 400.37125614166257C379 400.3112561416626 385 395.6312561416626 391 396.0512561416626C397 396.4712561416626 403 402.8612561416626 409 402.8912561416626C415 402.9212561416626 421 396.0512561416626 427 396.2312561416626C433 396.4112561416626 439 403.7912561416626 445 403.9712561416626C451 404.1512561416626 460 398.4212561416626 463 397.3112561416626 " transform="rotate(9, 400, 400)"></path><path d="M358 400.3675047302246C360 399.9075047302246 366 397.6275047302246 370 397.6075047302246C374 397.5875047302246 378 400.2875047302246 382 400.2475047302246C386 400.2075047302246 390 397.0875047302246 394 397.3675047302246C398 397.6475047302246 402 401.9075047302246 406 401.9275047302246C410 401.94750473022464 414 397.3675047302246 418 397.4875047302246C422 397.6075047302246 426 402.5275047302246 430 402.6475047302246C434 402.76750473022463 440 398.94750473022464 442 398.2075047302246 " transform="rotate(6, 400, 400)"></path><path d="M379 400.1837521266937C380 399.9537521266937 383 398.8137521266937 385 398.8037521266937C387 398.79375212669373 389 400.1437521266937 391 400.1237521266937C393 400.10375212669373 395 398.54375212669373 397 398.6837521266937C399 398.8237521266937 401 400.9537521266937 403 400.96375212669375C405 400.97375212669374 407 398.6837521266937 409 398.7437521266937C411 398.8037521266937 413 401.2637521266937 415 401.3237521266937C417 401.3837521266937 420 399.47375212669374 421 399.10375212669373 " transform="rotate(3, 400, 400)"></path></g></svg>